<svg width="50" height="58" viewBox="0 0 50 58" fill="none" xmlns="http://www.w3.org/2000/svg">
<path d="M4.6875 57.2574H17.1875C19.7754 57.2574 21.875 54.5284 21.875 51.1647V34.9172C21.875 31.5535 19.7754 28.8244 17.1875 28.8244H9.375V20.7007C9.375 16.22 12.1777 12.577 15.625 12.577H16.4062C17.7051 12.577 18.75 11.2188 18.75 9.53063V3.43785C18.75 1.74964 17.7051 0.391449 16.4062 0.391449H15.625C6.99219 0.391449 0 9.47985 0 20.7007V51.1647C0 54.5284 2.09961 57.2574 4.6875 57.2574ZM32.8125 57.2574H45.3125C47.9004 57.2574 50 54.5284 50 51.1647V34.9172C50 31.5535 47.9004 28.8244 45.3125 28.8244H37.5V20.7007C37.5 16.22 40.3027 12.577 43.75 12.577H44.5312C45.8301 12.577 46.875 11.2188 46.875 9.53063V3.43785C46.875 1.74964 45.8301 0.391449 44.5312 0.391449H43.75C35.1172 0.391449 28.125 9.47985 28.125 20.7007V51.1647C28.125 54.5284 30.2246 57.2574 32.8125 57.2574Z" fill="#969696" fill-opacity="0.25"/>
</svg>
